<svg xmlns="http://www.w3.org/2000/svg" xmlns:xlink="http://www.w3.org/1999/xlink" width="500" zoomAndPan="magnify" viewBox="0 0 375 374.999991" height="500" preserveAspectRatio="xMidYMid meet" version="1.0"><defs><clipPath id="dccb433663"><path d="M 221 160 L 261.734375 160 L 261.734375 170 L 221 170 Z M 221 160 " clip-rule="nonzero"/></clipPath><clipPath id="990d28322b"><path d="M 139 200 L 182 200 L 182 220.5 L 139 220.5 Z M 139 200 " clip-rule="nonzero"/></clipPath><clipPath id="5ff3909224"><path d="M 113.234375 91 L 172 91 L 172 146 L 113.234375 146 Z M 113.234375 91 " clip-rule="nonzero"/></clipPath><clipPath id="c38827f178"><path d="M 156 63.75 L 226 63.75 L 226 178 L 156 178 Z M 156 63.75 " clip-rule="nonzero"/></clipPath></defs><path fill="#fbae3e" d="M 216.859375 129.972656 C 216.382812 129.660156 215.027344 128.347656 214.582031 127.875 L 212.339844 125.59375 C 211.035156 124.082031 209.136719 122.652344 207.679688 121.171875 C 207.460938 121.535156 207.472656 122.078125 207.4375 122.535156 C 207.21875 125.210938 206.453125 132.074219 206.484375 133.710938 L 215.695312 130.558594 C 217.667969 129.835938 224.601562 130.503906 227.863281 130.246094 C 227.554688 129.410156 226.933594 128.316406 226.472656 127.441406 L 222.007812 118.707031 C 221.171875 120.03125 217.550781 129.195312 216.863281 129.976562 Z M 216.859375 129.972656 " fill-opacity="1" fill-rule="evenodd"/><path fill="#fbae3e" d="M 247.878906 142.265625 C 248.792969 144.394531 252.535156 150.15625 253.273438 151.878906 C 253.761719 151.511719 256.410156 147.242188 256.890625 146.503906 L 260.421875 140.992188 L 247.878906 142.261719 Z M 247.878906 142.265625 " fill-opacity="1" fill-rule="evenodd"/><path fill="#fbae3e" d="M 228.40625 130.351562 C 228.558594 130.523438 228.441406 130.433594 228.652344 130.566406 L 233.507812 132.375 C 234.5625 132.773438 237.957031 134.136719 238.792969 134.246094 L 237.210938 121.40625 C 236.503906 121.742188 229.574219 129.660156 228.402344 130.351562 Z M 228.40625 130.351562 " fill-opacity="1" fill-rule="evenodd"/><path fill="#fbae3e" d="M 191.179688 150.628906 C 191.554688 150.300781 196.75 141.542969 196.847656 141.125 L 184 140.265625 L 191.183594 150.628906 Z M 191.179688 150.628906 " fill-opacity="1" fill-rule="evenodd"/><path fill="#fbae3e" d="M 239.210938 134.613281 C 240.03125 135.492188 241.667969 136.71875 242.296875 137.296875 L 244.390625 139.0625 C 244.84375 139.382812 245.007812 139.675781 245.421875 140.023438 L 247.585938 141.738281 L 250.566406 129.15625 L 239.207031 134.613281 Z M 239.210938 134.613281 " fill-opacity="1" fill-rule="evenodd"/><path fill="#fbae3e" d="M 178.546875 154.78125 L 188.792969 161.933594 L 190.917969 151.113281 L 178.886719 154.582031 C 178.636719 154.6875 179.074219 154.46875 178.710938 154.675781 C 178.6875 154.683594 178.644531 154.71875 178.625 154.726562 C 178.609375 154.738281 178.574219 154.765625 178.546875 154.785156 Z M 178.546875 154.78125 " fill-opacity="1" fill-rule="evenodd"/><path fill="#fbae3e" d="M 197.3125 140.796875 L 205.863281 133.859375 L 194.078125 128.574219 Z M 197.3125 140.796875 " fill-opacity="1" fill-rule="evenodd"/><g clip-path="url(#dccb433663)"><path fill="#2c9ec7" d="M 259.425781 160.207031 C 246.652344 162.738281 233.875 165.246094 221.132812 167.925781 L 232.410156 169.707031 C 241.824219 167.632812 251.257812 165.667969 260.703125 163.726562 C 261.0625 162.679688 261.40625 161.625 261.726562 160.5625 L 259.421875 160.203125 Z M 259.425781 160.207031 " fill-opacity="1" fill-rule="evenodd"/></g><path fill="#2c9ec7" d="M 214.285156 166.84375 C 226.917969 164.128906 239.582031 161.609375 252.25 159.097656 L 248.171875 158.464844 L 236.976562 158.464844 C 225.722656 160.625 214.472656 162.796875 203.242188 165.097656 L 214.285156 166.839844 Z M 214.285156 166.84375 " fill-opacity="1" fill-rule="evenodd"/><path fill="#2c9ec7" d="M 232.476562 172.234375 C 219.460938 175.109375 206.46875 178.179688 193.613281 181.730469 L 206.507812 183.808594 C 218.953125 180.164062 231.539062 177.011719 244.171875 174.085938 L 232.472656 172.238281 Z M 232.476562 172.234375 " fill-opacity="1" fill-rule="evenodd"/><path fill="#2c9ec7" d="M 214.347656 169.371094 C 201.210938 172.203125 188.105469 175.238281 175.125 178.753906 L 187.792969 180.792969 C 200.355469 177.179688 213.0625 174.066406 225.808594 171.183594 Z M 214.347656 169.371094 " fill-opacity="1" fill-rule="evenodd"/><path fill="#2c9ec7" d="M 147.472656 195 C 158.742188 190.015625 170.457031 185.964844 182.265625 182.417969 L 169.378906 180.339844 C 157.117188 183.8125 144.898438 187.757812 133.105469 192.644531 L 147.46875 195 Z M 147.472656 195 " fill-opacity="1" fill-rule="evenodd"/><path fill="#2c9ec7" d="M 166.585938 198.144531 C 177.738281 193.117188 189.34375 189.027344 201.046875 185.445312 L 187.941406 183.332031 C 175.789062 186.835938 163.675781 190.816406 152.003906 195.746094 L 166.589844 198.144531 Z M 166.585938 198.144531 " fill-opacity="1" fill-rule="evenodd"/><path fill="#2c9ec7" d="M 171.066406 198.878906 L 185.878906 201.3125 C 196.90625 196.242188 208.40625 192.117188 219.996094 188.503906 L 206.664062 186.351562 C 194.621094 189.894531 182.621094 193.910156 171.070312 198.878906 Z M 171.066406 198.878906 " fill-opacity="1" fill-rule="evenodd"/><g clip-path="url(#990d28322b)"><path fill="#2c9ec7" d="M 166.914062 200.714844 C 157.445312 205.027344 148.042969 210.167969 139.777344 216.59375 C 141.71875 217.453125 143.695312 218.246094 145.707031 218.964844 L 154.867188 220.5 C 162.917969 213.480469 172.3125 207.871094 181.929688 203.183594 L 166.914062 200.71875 Z M 166.914062 200.714844 " fill-opacity="1" fill-rule="evenodd"/></g><path fill="#2c9ec7" d="M 147.792969 197.570312 C 140.410156 200.871094 133.058594 204.660156 126.222656 209.144531 C 129.738281 211.488281 133.421875 213.59375 137.253906 215.429688 C 144.964844 209.273438 153.679688 204.25 162.582031 200.003906 Z M 147.792969 197.570312 " fill-opacity="1" fill-rule="evenodd"/><g clip-path="url(#5ff3909224)"><path fill="#9aca48" d="M 148.359375 118.070312 C 158.929688 123.0625 163.136719 128.535156 170.238281 139.460938 C 150.144531 160.84375 118.34375 122.027344 114.425781 99.992188 C 113.894531 96.976562 113.5 93.957031 113.242188 91.003906 C 135.015625 102.90625 166.257812 96.289062 171.257812 134.863281 C 164.378906 127.617188 158.683594 121.011719 148.359375 118.070312 Z M 148.359375 118.070312 " fill-opacity="1" fill-rule="evenodd"/></g><g clip-path="url(#c38827f178)"><path fill="#75ad4e" d="M 173.832031 171.535156 L 173.664062 170.097656 C 173.457031 167.332031 173.351562 164.472656 173.195312 161.667969 L 173.195312 145.980469 C 173.777344 136.804688 173.910156 132.746094 177.539062 124.867188 C 182.894531 113.234375 191.386719 101.609375 203.949219 92.730469 C 188.398438 101.386719 178.960938 114.542969 172.746094 122.863281 C 173.574219 104.355469 178.863281 89.933594 189.222656 82.988281 C 195.257812 78.949219 219.308594 65.699219 225.316406 63.746094 C 225.835938 80.40625 226.136719 96.664062 217.570312 108.515625 C 211.671875 116.671875 197.796875 124.277344 183.082031 126.546875 C 176.515625 139.113281 179.222656 151.828125 180.648438 169.957031 C 185.878906 168.769531 191.125 167.636719 196.371094 166.527344 L 207.597656 168.304688 C 194.738281 171.148438 181.925781 174.230469 169.246094 177.804688 L 156.800781 175.800781 C 162.457031 174.296875 168.136719 172.882812 173.832031 171.535156 Z M 173.832031 171.535156 " fill-opacity="1" fill-rule="evenodd"/></g><path fill="#fbae3e" d="M 192.671875 162.054688 C 214.582031 157.359375 233.214844 153.574219 248.5625 150.707031 C 248.398438 150.359375 248.222656 150.011719 248.042969 149.667969 C 246.375 146.46875 243.542969 142.679688 240.78125 140.542969 C 238.066406 138.445312 236.261719 137.109375 232.671875 135.734375 C 228.929688 134.296875 224.496094 133.507812 220.035156 133.785156 C 214.453125 134.132812 209.480469 136.082031 205.136719 139.042969 L 203.101562 140.609375 C 202.867188 140.789062 202.808594 140.800781 202.585938 141.015625 L 198.652344 145.347656 C 198.023438 146.15625 197.628906 146.675781 197.117188 147.539062 C 194.363281 152.160156 192.871094 157.101562 192.671875 162.058594 Z M 192.671875 162.054688 " fill-opacity="1" fill-rule="evenodd"/></svg>