<?xml version="1.0" encoding="UTF-8" standalone="no"?>
<!-- Created with Inkscape (http://www.inkscape.org/) -->

<svg
   width="210mm"
   height="297mm"
   viewBox="0 0 210 297"
   version="1.1"
   id="svg158"
   xml:space="preserve"
   inkscape:version="1.2.2 (732a01da63, 2022-12-09)"
   sodipodi:docname="logga_utan_ring.svg"
   xmlns:inkscape="http://www.inkscape.org/namespaces/inkscape"
   xmlns:sodipodi="http://sodipodi.sourceforge.net/DTD/sodipodi-0.dtd"
   xmlns:xlink="http://www.w3.org/1999/xlink"
   xmlns="http://www.w3.org/2000/svg"
   xmlns:svg="http://www.w3.org/2000/svg"><sodipodi:namedview
     id="namedview160"
     pagecolor="#ffffff"
     bordercolor="#000000"
     borderopacity="0.25"
     inkscape:showpageshadow="2"
     inkscape:pageopacity="0.0"
     inkscape:pagecheckerboard="0"
     inkscape:deskcolor="#d1d1d1"
     inkscape:document-units="mm"
     showgrid="false"
     inkscape:zoom="0.73584456"
     inkscape:cx="368.96379"
     inkscape:cy="561.93933"
     inkscape:window-width="1920"
     inkscape:window-height="1013"
     inkscape:window-x="-9"
     inkscape:window-y="-9"
     inkscape:window-maximized="1"
     inkscape:current-layer="g3615" /><defs
     id="defs155"><linearGradient
       inkscape:collect="always"
       id="linearGradient1030"><stop
         style="stop-color:#ffcc00;stop-opacity:1;"
         offset="0"
         id="stop1026" /><stop
         style="stop-color:#ffcc00;stop-opacity:0;"
         offset="1"
         id="stop1028" /></linearGradient><clipPath
       id="dccb433663"><path
         d="M 221 160 L 261.734375 160 L 261.734375 170 L 221 170 Z M 221 160 "
         clip-rule="nonzero"
         id="path66" /></clipPath><clipPath
       id="990d28322b"><path
         d="M 139 200 L 182 200 L 182 220.5 L 139 220.5 Z M 139 200 "
         clip-rule="nonzero"
         id="path69" /></clipPath><clipPath
       id="5ff3909224"><path
         d="M 113.234375 91 L 172 91 L 172 146 L 113.234375 146 Z M 113.234375 91 "
         clip-rule="nonzero"
         id="path72" /></clipPath><clipPath
       id="c38827f178"><path
         d="M 156 63.75 L 226 63.75 L 226 178 L 156 178 Z M 156 63.75 "
         clip-rule="nonzero"
         id="path75" /></clipPath><linearGradient
       inkscape:collect="always"
       xlink:href="#linearGradient1030"
       id="linearGradient1032"
       x1="190.22397"
       y1="133.92857"
       x2="150.72639"
       y2="213.83171"
       gradientUnits="userSpaceOnUse" /></defs><g
     inkscape:label="Layer 1"
     inkscape:groupmode="layer"
     id="layer1"><g
       id="g3615"
       transform="matrix(0.35277778,0,0,0.35277778,37.547436,81.311187)"><path
         id="path80"
         d="m 189.77367,130.9644 c -0.83593,1.32422 -4.45703,10.48926 -5.14453,11.27051 l -0.003,-0.004 c -0.47656,-0.31249 -1.83252,-1.625 -2.27783,-2.09765 l -2.24268,-2.28076 c -1.30468,-1.51172 -3.20264,-2.9419 -4.65966,-4.42237 -0.21875,0.36328 -0.20655,0.90674 -0.2417,1.36377 -0.21875,2.67578 -0.98487,9.53858 -0.95362,11.1753 l 9.21094,-3.15235 c 1.97265,-0.72265 8.90674,-0.0542 12.16846,-0.31201 -0.3086,-0.83594 -0.93067,-1.93018 -1.3916,-2.80518 z m 15.20361,2.69971 c -0.70703,0.33594 -7.63623,8.25439 -8.8081,8.9458 h 0.003 c 0.15234,0.17188 0.0351,0.081 0.24609,0.21387 l 4.85596,1.80908 c 1.05469,0.39844 4.44922,1.76123 5.28516,1.8706 z m -43.13232,7.16748 3.23438,12.22266 8.55029,-6.9375 z m 56.4873,0.58301 -11.35839,5.45654 h 0.003 c 0.82031,0.87891 2.45752,2.10547 3.08642,2.68359 l 2.09326,1.76514 c 0.45313,0.32031 0.61719,0.61328 1.03125,0.96094 l 2.16504,1.71533 z m -28.86035,4.57324 c -0.55546,0.002 -1.1123,0.021 -1.66992,0.0557 -5.58202,0.34766 -10.55518,2.29639 -14.89892,5.25733 l -2.03467,1.56592 c -0.23438,0.17968 -0.29297,0.19238 -0.51563,0.40722 l -3.93457,4.33154 c -0.6289,0.8086 -1.02344,1.32813 -1.53515,2.19141 -2.7531,4.61973 -4.24442,9.55958 -4.44434,14.51514 21.91014,-4.69531 40.54201,-8.4795 55.88965,-11.34668 -0.16406,-0.34766 -0.33887,-0.69629 -0.51856,-1.04004 -1.66796,-3.19922 -4.50097,-6.9878 -7.26269,-9.12451 -2.71484,-2.09766 -4.51954,-3.43409 -8.10938,-4.80908 -3.27441,-1.25782 -7.07756,-2.01903 -10.96582,-2.00391 z m -37.70507,6.53613 7.18212,10.35938 c 0.39143,-0.35745 5.56707,-9.08376 5.66456,-9.50098 z m 7.18212,10.35938 c -6.9e-4,6.3e-4 -0.002,0.002 -0.003,0.003 h 0.004 z m 69.23877,-9.63282 -12.54199,1.26856 v 0.004 c 0.91406,2.12891 4.65527,7.89112 5.39356,9.61377 0.48828,-0.36718 3.13769,-4.63769 3.61816,-5.37597 z m -69.5039,10.12061 -12.03076,3.46875 c -0.038,0.0161 -0.0384,0.0154 -0.0498,0.019 -0.0186,0.0125 -0.0472,0.0298 -0.12597,0.0747 -0.0234,0.008 -0.0669,0.0435 -0.0864,0.0513 -0.015,0.0112 -0.0479,0.0364 -0.0747,0.0557 l 10.24365,7.15137 z m -12.36768,3.66943 -0.003,-0.001 v 0.004 c 0.001,-8.2e-4 0.002,-0.002 0.003,-0.003 z m 0.28711,-0.18164 c 0.0542,-0.0364 -0.0475,0.0152 0,0 z"
         style="fill:url(#linearGradient1032);fill-opacity:1" /><g
         clip-path="url(#dccb433663)"
         id="g96"><path
           fill="#2c9ec7"
           d="m 259.42578,160.20703 c -12.77344,2.53125 -25.55078,5.03906 -38.29297,7.71875 l 11.27735,1.78125 c 9.41406,-2.07422 18.84765,-4.03906 28.29296,-5.98047 0.35938,-1.04687 0.70313,-2.10156 1.02344,-3.16406 l -2.30469,-0.35938 z m 0,0"
           fill-opacity="1"
           fill-rule="evenodd"
           id="path94" /></g><path
         fill="#2c9ec7"
         d="m 214.28516,166.84375 c 12.63281,-2.71484 25.29687,-5.23438 37.96484,-7.74609 l -4.07813,-0.63282 h -11.19531 c -11.2539,2.16016 -22.5039,4.33203 -33.73437,6.63282 l 11.04297,1.74218 z m 0,0"
         fill-opacity="1"
         fill-rule="evenodd"
         id="path98" /><path
         fill="#2c9ec7"
         d="m 232.47656,172.23437 c -13.01562,2.875 -26.00781,5.94532 -38.86328,9.4961 l 12.89453,2.07812 c 12.44531,-3.64453 25.03125,-6.79687 37.66406,-9.72265 l -11.69921,-1.84766 z m 0,0"
         fill-opacity="1"
         fill-rule="evenodd"
         id="path100" /><path
         fill="#2c9ec7"
         d="m 214.34766,169.37109 c -13.13672,2.83203 -26.24219,5.86719 -39.22266,9.38282 l 12.66797,2.03906 c 12.5625,-3.61328 25.26953,-6.72656 38.01562,-9.60938 z m 0,0"
         fill-opacity="1"
         fill-rule="evenodd"
         id="path102" /><path
         fill="#2c9ec7"
         d="m 147.47266,195 c 11.26953,-4.98438 22.98437,-9.03516 34.79296,-12.58203 l -12.88671,-2.07813 c -12.26172,3.47266 -24.48047,7.41797 -36.27344,12.30469 L 147.46875,195 Z m 0,0"
         fill-opacity="1"
         fill-rule="evenodd"
         id="path104" /><path
         fill="#2c9ec7"
         d="m 166.58594,198.14453 c 11.15234,-5.02734 22.75781,-9.11719 34.46093,-12.69922 l -13.10546,-2.11328 c -12.15235,3.50391 -24.26563,7.48438 -35.9375,12.41406 l 14.58593,2.39844 z m 0,0"
         fill-opacity="1"
         fill-rule="evenodd"
         id="path106" /><path
         fill="#2c9ec7"
         d="m 171.06641,198.87891 14.8125,2.43359 c 11.02734,-5.07031 22.52734,-9.19531 34.11718,-12.80859 l -13.33203,-2.15235 c -12.04297,3.54297 -24.04297,7.5586 -35.59375,12.52735 z m 0,0"
         fill-opacity="1"
         fill-rule="evenodd"
         id="path108" /><g
         clip-path="url(#5ff3909224)"
         id="g118"><path
           fill="#9aca48"
           d="m 148.35937,118.07031 c 10.57032,4.99219 14.77735,10.46485 21.87891,21.39063 -20.09375,21.38281 -51.89453,-17.4336 -55.8125,-39.468752 -0.53125,-3.015626 -0.92578,-6.035157 -1.18359,-8.988282 21.77343,11.902344 53.01562,5.285156 58.01562,43.859374 -6.8789,-7.24609 -12.57422,-13.85156 -22.89844,-16.79297 z m 0,0"
           fill-opacity="1"
           fill-rule="evenodd"
           id="path116" /></g><g
         clip-path="url(#c38827f178)"
         id="g122"><path
           fill="#75ad4e"
           d="m 173.83203,171.53516 -0.16797,-1.4375 c -0.20703,-2.76563 -0.3125,-5.625 -0.46875,-8.42969 v -15.6875 c 0.58203,-9.17578 0.71485,-13.23438 4.34375,-21.11328 5.35547,-11.63281 13.84766,-23.25781 26.41016,-32.136721 -15.55078,8.656251 -24.98828,21.812501 -31.20313,30.132811 0.82813,-18.50781 6.11719,-32.929686 16.47657,-39.874999 6.03515,-4.039062 30.08593,-17.289062 36.09375,-19.242187 0.51953,16.660156 0.82031,32.917968 -7.7461,44.769536 -5.89844,8.15625 -19.77344,15.76171 -34.48828,18.03125 -6.56641,12.5664 -3.85937,25.28124 -2.43359,43.41015 5.23047,-1.1875 10.47656,-2.32031 15.72265,-3.42969 l 11.22657,1.77735 c -12.85938,2.84375 -25.67188,5.92578 -38.35157,9.5 l -12.44531,-2.00391 c 5.65625,-1.50391 11.33594,-2.91797 17.03125,-4.26562 z m 0,0"
           fill-opacity="1"
           fill-rule="evenodd"
           id="path120" /></g></g></g></svg>
